<svg height="512" viewBox="0 0 64 64" width="512" xmlns="http://www.w3.org/2000/svg"><g id="Layer_38"><path d="m31.4401 40.5972-11.54 18.05c-.39.59-.95 1.01-1.59 1.21-.29.09-.6.14-.91.14-.17 0-.4301-.01-.71-.08-.5-.11-.95-.35-1.32-.71-.49-.43-.84-1.06-.94-1.77l-1.11-7.17-6.77-1.05c-1.26-.19-2.24-1.12-2.49-2.37-.25-1.28.29-2.5 1.41-3.17l14.48-8.82 1.78.89 3.51 1.75 4.41 2.2z" fill="#3867d6"/><path d="m32.5599 40.5972 11.54 18.05c.39.59.95 1.01 1.59 1.21.29.09.6.14.91.14.17 0 .4301-.01.71-.08.5-.11.95-.35 1.32-.71.49-.43.84-1.06.94-1.77l1.11-7.17 6.77-1.05c1.26-.19 2.24-1.12 2.49-2.37.25-1.28-.29-2.5-1.41-3.17l-14.48-8.82-1.78.89-3.51 1.75-4.41 2.2z" fill="#3867d6"/><path d="m31.9997 45.9612c-2.405-.017-4.1772-2.4229-6.5271-3.0268-1.9683-.5058-4.235.2843-5.9879-.744-2.1874-1.2831-2.1858-4.5075-3.8418-6.4281-1.3342-1.5474-3.7127-2.2086-4.4228-4.1244-.7768-2.0957.9367-4.2961.9601-6.531.0238-2.2693-1.6992-4.4947-.9688-6.6434.7172-2.1101 3.3578-2.8403 4.7229-4.6019 1.3033-1.6818 1.2829-4.22 2.935-5.6534 1.884-1.6347 4.8267-.5887 7.0396-1.3037 2.1766-.7033 3.8465-2.9019 6.1338-2.8813 2.2461.0202 3.8722 2.175 6.0076 2.8716 2.3639.7711 5.3328-.2365 7.191 1.4156 1.4316 1.2728 1.4372 3.5193 2.4965 5.1154 1.422 2.1426 4.6458 3.0033 5.1908 5.5164.4219 1.9454-1.0573 3.8117-1.1285 5.8011-.0829 2.3137 1.7389 4.5822.9961 6.775-.7129 2.1046-3.3463 2.8329-4.708 4.5889-1.3773 1.7762-1.385 4.52-3.2053 5.8384-1.855 1.3436-4.4995.4303-6.6902 1.0991-2.1732.6634-3.8057 2.8588-6.0772 2.9155-.0387.001-.0773.0013-.1158.001z" fill="#a5b1c2"/><path d="m47 24.9973c0 8.27-6.73 15-15 15-.68 0-1.34-.04-1.99-.14-6.68-.88-11.99-6.19-12.87-12.87-.1-.65-.14-1.31-.14-1.99 0-8.27 6.73-15 15-15 .68 0 1.34.04 1.99.14 6.68.8799 11.99 6.1899 12.87 12.87.1.6499.14 1.31.14 1.99z" fill="#6f7782"/><circle cx="32" cy="24.997" fill="#a5b1c2" r="9"/><path d="m29 21.5v-1c0-.2761.2239-.5.5-.5h3.5c1.1046 0 2 .8954 2 2v2c0 1.1046-.8954 2-2 2h-2v2h3.5c.2761 0 .5.2239.5.5v1c0 .2761-.2239.5-.5.5h-3.5c-1.1046 0-2-.8954-2-2v-2c0-1.1046.8954-2 2-2h2v-2h-3.5c-.2761 0-.5-.2239-.5-.5z" fill="#6f7782"/></g></svg>